Coordinates
version=1
nRows=14
nColumns=38
inDegrees=no

Units are S.I. units (second, meters, Newtons, ...)
If the header above contains a line with 'inDegrees', this indicates whether rotational values are in degrees (yes) or radians (no).

endheader
time	pelvis_tilt	pelvis_list	pelvis_rotation	pelvis_tx	pelvis_ty	pelvis_tz	hip_flexion_r	hip_adduction_r	hip_rotation_r	knee_angle_r	ankle_angle_r	subtalar_angle_r	mtp_angle_r	hip_flexion_l	hip_adduction_l	hip_rotation_l	knee_angle_l	ankle_angle_l	subtalar_angle_l	mtp_angle_l	lumbar_extension	lumbar_bending	lumbar_rotation	arm_flex_r	arm_add_r	arm_rot_r	elbow_flex_r	pro_sup_r	wrist_flex_r	wrist_dev_r	arm_flex_l	arm_add_l	arm_rot_l	elbow_flex_l	pro_sup_l	wrist_flex_l	wrist_dev_l
20.77	0.826684	1.48085	0.590751	0.856108	-0.461263	0.971468	-0.0248082	0.108148	-0.0855656	0.144776	0.139564	0	0	0.100674	-0.145064	-0.274353	0.153079	0.0490078	0	0	-0.0801686	0.113847	0.098062	0.464851	-0.189926	0.249896	1.46125	1.5708	0	0	0.51502	-0.161612	-0.0968028	1.24668	0.91304	0	0
20.78	0.845945	1.48423	0.573314	0.855609	-0.461868	0.971776	-0.0277253	0.1058	-0.0870925	0.144462	0.139955	0	0	0.107057	-0.144578	-0.273599	0.170665	0.0563532	0	0	-0.0828152	0.112135	0.102773	0.462322	-0.191443	0.241747	1.46205	1.5708	0	0	0.523901	-0.211975	0.16314	1.13936	1.5708	0	0
20.79	0.863171	1.48675	0.558108	0.854903	-0.462357	0.972077	-0.0303828	0.103845	-0.0882989	0.143308	0.139598	0	0	0.114448	-0.144373	-0.272458	0.189027	0.0634725	0	0	-0.0867661	0.110891	0.100715	0.464476	-0.189871	0.239811	1.45974	1.5708	0	0	0.526195	-0.211767	0.162189	1.13835	1.5708	0	0
20.8	0.884286	1.48912	0.539417	0.85412	-0.462754	0.972364	-0.0335999	0.102188	-0.0895489	0.141568	0.13884	0	0	0.121861	-0.144227	-0.271371	0.207526	0.0703304	0	0	-0.0906485	0.109797	0.0992505	0.465335	-0.189042	0.236732	1.45876	1.5708	0	0	0.529686	-0.212245	0.166171	1.13676	1.5708	0	0
20.81	0.90744	1.49131	0.5185	0.853287	-0.463041	0.972631	-0.0369432	0.100735	-0.090444	0.139742	0.137719	0	0	0.12911	-0.144204	-0.271908	0.225789	0.0771961	0	0	-0.094379	0.108841	0.0986674	0.46514	-0.188657	0.232285	1.45865	1.5708	0	0	0.533345	-0.212277	0.171311	1.13517	1.5708	0	0
20.82	0.927374	1.49338	0.50048	0.852363	-0.463244	0.97286	-0.0395983	0.0989951	-0.0912441	0.138685	0.137013	0	0	0.136011	-0.143698	-0.273662	0.242353	0.083635	0	0	-0.0975227	0.107942	0.0985434	0.464591	-0.188339	0.227044	1.45841	1.5708	0	0	0.536465	-0.212021	0.176842	1.13314	1.5708	0	0
20.83	0.942623	1.49533	0.486593	0.85135	-0.463357	0.97306	-0.0416563	0.096916	-0.0910975	0.138097	0.136532	0	0	0.1423	-0.142618	-0.276772	0.256481	0.0893009	0	0	-0.100039	0.107	0.0990861	0.463387	-0.188375	0.221453	1.45886	1.5708	0	0	0.539168	-0.211011	0.181964	1.13159	1.5708	0	0
20.84	0.949374	1.49715	0.480576	0.850267	-0.463375	0.973223	-0.0427542	0.0944694	-0.0905928	0.138202	0.136373	0	0	0.14784	-0.140735	-0.280885	0.267238	0.0941041	0	0	-0.101644	0.105873	0.100163	0.460924	-0.188894	0.216065	1.46105	1.5708	0	0	0.54125	-0.209257	0.186264	1.13121	1.5708	0	0
20.85	0.949625	1.49885	0.48053	0.849108	-0.463309	0.973382	-0.042818	0.0915791	-0.0910857	0.139459	0.136831	0	0	0.15227	-0.138068	-0.285607	0.274107	0.0983858	0	0	-0.102659	0.104635	0.101382	0.457841	-0.189859	0.21143	1.46427	1.5708	0	0	0.542303	-0.207199	0.189609	1.13213	1.5708	0	0
20.86	1.12318	1.48407	0.304088	0.847484	-0.463871	0.975767	-0.0358827	0.105206	-0.124111	0.165667	0.136803	0	0	0.149052	-0.157196	-0.291581	0.277431	0.100743	0	0	-0.115012	0.128302	0.107759	0.460322	-0.196292	0.208164	1.46499	1.5708	0	0	0.541792	-0.197641	0.185721	1.1281	1.5708	0	0
20.87	1.09868	1.48469	0.327842	0.846105	-0.463599	0.975764	-0.0300742	0.101119	-0.132784	0.174216	0.141602	0	0	0.153236	-0.153555	-0.297548	0.277307	0.105421	0	0	-0.11488	0.127351	0.102499	0.461671	-0.194777	0.210736	1.46499	1.5708	0	0	0.533182	-0.149091	-0.0658239	1.23563	0.9053	0	0
20.88	0.929043	1.50212	0.499129	0.845421	-0.462576	0.973842	-0.0406216	0.0829244	-0.0975665	0.144298	0.138901	0	0	0.15829	-0.12783	-0.303056	0.27304	0.110204	0	0	-0.102571	0.101842	0.105839	0.449739	-0.19255	0.194137	1.46953	1.5708	0	0	0.540288	-0.202049	0.20068	1.13683	1.5708	0	0
20.89	0.9319	1.50292	0.495228	0.844048	-0.462026	0.973958	-0.0413798	0.0807236	-0.097263	0.144629	0.139081	0	0	0.156894	-0.123652	-0.307606	0.266452	0.112854	0	0	-0.102579	0.1017	0.106247	0.449859	-0.1929	0.18782	1.46757	1.5708	0	0	0.537677	-0.19833	0.198416	1.14058	1.5708	0	0
20.9	0.936496	1.50354	0.489676	0.842611	-0.461291	0.973987	-0.0425802	0.0788152	-0.0953048	0.144535	0.139213	0	0	0.154327	-0.119011	-0.310528	0.257271	0.114112	0	0	-0.102041	0.101779	0.1058	0.449039	-0.193668	0.183201	1.46617	1.5708	0	0	0.533504	-0.196584	0.198415	1.14451	1.5708	0	0
